  0
SECTION
  2
HEADER
  9
$ACADVER
  1
AC1024
  9
$ACADMAINTVER
 70
6
  9
$DWGCODEPAGE
  3
ANSI_1252
  9
$LASTSAVEDBY
  1
ezdxf
  9
$INSBASE
 10
0.0
 20
0.0
 30
0.0
  9
$EXTMIN
 10
1e+20
 20
1e+20
 30
1e+20
  9
$EXTMAX
 10
-1e+20
 20
-1e+20
 30
-1e+20
  9
$LIMMIN
 10
0.0
 20
0.0
  9
$LIMMAX
 10
420.0
 20
297.0
  9
$ORTHOMODE
 70
0
  9
$REGENMODE
 70
1
  9
$FILLMODE
 70
1
  9
$QTEXTMODE
 70
0
  9
$MIRRTEXT
 70
1
  9
$LTSCALE
 40
1.0
  9
$ATTMODE
 70
1
  9
$TEXTSIZE
 40
2.5
  9
$TRACEWID
 40
1.0
  9
$TEXTSTYLE
  7
Standard
  9
$CLAYER
  8
0
  9
$CELTYPE
  6
ByLayer
  9
$CECOLOR
 62
256
  9
$CELTSCALE
 40
1.0
  9
$DISPSILH
 70
0
  9
$DIMSCALE
 40
1.0
  9
$DIMASZ
 40
2.5
  9
$DIMEXO
 40
0.625
  9
$DIMDLI
 40
3.75
  9
$DIMRND
 40
0.0
  9
$DIMDLE
 40
0.0
  9
$DIMEXE
 40
1.25
  9
$DIMTP
 40
0.0
  9
$DIMTM
 40
0.0
  9
$DIMTXT
 40
2.5
  9
$DIMCEN
 40
2.5
  9
$DIMTSZ
 40
0.0
  9
$DIMTOL
 70
0
  9
$DIMLIM
 70
0
  9
$DIMTIH
 70
0
  9
$DIMTOH
 70
0
  9
$DIMSE1
 70
0
  9
$DIMSE2
 70
0
  9
$DIMTAD
 70
1
  9
$DIMZIN
 70
8
  9
$DIMBLK
  1

  9
$DIMASO
 70
1
  9
$DIMSHO
 70
1
  9
$DIMPOST
  1

  9
$DIMAPOST
  1

  9
$DIMALT
 70
0
  9
$DIMALTD
 70
3
  9
$DIMALTF
 40
0.03937007874
  9
$DIMLFAC
 40
1.0
  9
$DIMTOFL
 70
1
  9
$DIMTVP
 40
0.0
  9
$DIMTIX
 70
0
  9
$DIMSOXD
 70
0
  9
$DIMSAH
 70
0
  9
$DIMBLK1
  1

  9
$DIMBLK2
  1

  9
$DIMSTYLE
  2
ISO-25
  9
$DIMCLRD
 70
0
  9
$DIMCLRE
 70
0
  9
$DIMCLRT
 70
0
  9
$DIMTFAC
 40
1.0
  9
$DIMGAP
 40
0.625
  9
$DIMJUST
 70
0
  9
$DIMSD1
 70
0
  9
$DIMSD2
 70
0
  9
$DIMTOLJ
 70
0
  9
$DIMTZIN
 70
8
  9
$DIMALTZ
 70
0
  9
$DIMALTTZ
 70
0
  9
$DIMUPT
 70
0
  9
$DIMDEC
 70
2
  9
$DIMTDEC
 70
2
  9
$DIMALTU
 70
2
  9
$DIMALTTD
 70
3
  9
$DIMTXSTY
  7
Standard
  9
$DIMAUNIT
 70
0
  9
$DIMADEC
 70
0
  9
$DIMALTRND
 40
0.0
  9
$DIMAZIN
 70
0
  9
$DIMDSEP
 70
44
  9
$DIMATFIT
 70
3
  9
$DIMFRAC
 70
0
  9
$DIMLDRBLK
  1

  9
$DIMLUNIT
 70
2
  9
$DIMLWD
 70
-2
  9
$DIMLWE
 70
-2
  9
$DIMTMOVE
 70
0
  9
$DIMFXL
 40
1.0
  9
$DIMFXLON
 70
0
  9
$DIMJOGANG
 40
0.785398163397
  9
$DIMTFILL
 70
0
  9
$DIMTFILLCLR
 70
0
  9
$DIMARCSYM
 70
0
  9
$DIMLTYPE
  6

  9
$DIMLTEX1
  6

  9
$DIMLTEX2
  6

  9
$DIMTXTDIRECTION
 70
0
  9
$LUNITS
 70
2
  9
$LUPREC
 70
4
  9
$SKETCHINC
 40
1.0
  9
$FILLETRAD
 40
10.0
  9
$AUNITS
 70
0
  9
$AUPREC
 70
2
  9
$MENU
  1
.
  9
$ELEVATION
 40
0.0
  9
$PELEVATION
 40
0.0
  9
$THICKNESS
 40
0.0
  9
$LIMCHECK
 70
0
  9
$CHAMFERA
 40
0.0
  9
$CHAMFERB
 40
0.0
  9
$CHAMFERC
 40
0.0
  9
$CHAMFERD
 40
0.0
  9
$SKPOLY
 70
0
  9
$TDCREATE
 40
2460851.842488426
  9
$TDUCREATE
 40
2458532.153996898
  9
$TDUPDATE
 40
2460851.842488426
  9
$TDUUPDATE
 40
2458532.1544311
  9
$TDINDWG
 40
0.0
  9
$TDUSRTIMER
 40
0.0
  9
$USRTIMER
 70
1
  9
$ANGBASE
 50
0.0
  9
$ANGDIR
 70
0
  9
$PDMODE
 70
0
  9
$PDSIZE
 40
0.0
  9
$PLINEWID
 40
0.0
  9
$SPLFRAME
 70
0
  9
$SPLINETYPE
 70
6
  9
$SPLINESEGS
 70
8
  9
$HANDSEED
  5
33
  9
$SURFTAB1
 70
6
  9
$SURFTAB2
 70
6
  9
$SURFTYPE
 70
6
  9
$SURFU
 70
6
  9
$SURFV
 70
6
  9
$UCSBASE
  2

  9
$UCSNAME
  2

  9
$UCSORG
 10
0.0
 20
0.0
 30
0.0
  9
$UCSXDIR
 10
1.0
 20
0.0
 30
0.0
  9
$UCSYDIR
 10
0.0
 20
1.0
 30
0.0
  9
$UCSORTHOREF
  2

  9
$UCSORTHOVIEW
 70
0
  9
$UCSORGTOP
 10
0.0
 20
0.0
 30
0.0
  9
$UCSORGBOTTOM
 10
0.0
 20
0.0
 30
0.0
  9
$UCSORGLEFT
 10
0.0
 20
0.0
 30
0.0
  9
$UCSORGRIGHT
 10
0.0
 20
0.0
 30
0.0
  9
$UCSORGFRONT
 10
0.0
 20
0.0
 30
0.0
  9
$UCSORGBACK
 10
0.0
 20
0.0
 30
0.0
  9
$PUCSBASE
  2

  9
$PUCSNAME
  2

  9
$PUCSORG
 10
0.0
 20
0.0
 30
0.0
  9
$PUCSXDIR
 10
1.0
 20
0.0
 30
0.0
  9
$PUCSYDIR
 10
0.0
 20
1.0
 30
0.0
  9
$PUCSORTHOREF
  2

  9
$PUCSORTHOVIEW
 70
0
  9
$PUCSORGTOP
 10
0.0
 20
0.0
 30
0.0
  9
$PUCSORGBOTTOM
 10
0.0
 20
0.0
 30
0.0
  9
$PUCSORGLEFT
 10
0.0
 20
0.0
 30
0.0
  9
$PUCSORGRIGHT
 10
0.0
 20
0.0
 30
0.0
  9
$PUCSORGFRONT
 10
0.0
 20
0.0
 30
0.0
  9
$PUCSORGBACK
 10
0.0
 20
0.0
 30
0.0
  9
$USERI1
 70
0
  9
$USERI2
 70
0
  9
$USERI3
 70
0
  9
$USERI4
 70
0
  9
$USERI5
 70
0
  9
$USERR1
 40
0.0
  9
$USERR2
 40
0.0
  9
$USERR3
 40
0.0
  9
$USERR4
 40
0.0
  9
$USERR5
 40
0.0
  9
$WORLDVIEW
 70
1
  9
$SHADEDGE
 70
3
  9
$SHADEDIF
 70
70
  9
$TILEMODE
 70
1
  9
$MAXACTVP
 70
64
  9
$PINSBASE
 10
0.0
 20
0.0
 30
0.0
  9
$PLIMCHECK
 70
0
  9
$PEXTMIN
 10
1e+20
 20
1e+20
 30
1e+20
  9
$PEXTMAX
 10
-1e+20
 20
-1e+20
 30
-1e+20
  9
$PLIMMIN
 10
0.0
 20
0.0
  9
$PLIMMAX
 10
420.0
 20
297.0
  9
$UNITMODE
 70
0
  9
$VISRETAIN
 70
1
  9
$PLINEGEN
 70
0
  9
$PSLTSCALE
 70
1
  9
$TREEDEPTH
 70
3020
  9
$CMLSTYLE
  2
Standard
  9
$CMLJUST
 70
0
  9
$CMLSCALE
 40
20.0
  9
$PROXYGRAPHICS
 70
1
  9
$MEASUREMENT
 70
1
  9
$CELWEIGHT
370
-1
  9
$ENDCAPS
280
0
  9
$JOINSTYLE
280
0
  9
$LWDISPLAY
290
0
  9
$INSUNITS
 70
6
  9
$HYPERLINKBASE
  1

  9
$STYLESHEET
  1

  9
$XEDIT
290
1
  9
$CEPSNTYPE
380
0
  9
$PSTYLEMODE
290
1
  9
$FINGERPRINTGUID
  2
{53D3CEE1-FB84-4900-AD5E-33701F51C76E}
  9
$VERSIONGUID
  2
{937601C3-67D8-4BF8-B7B4-EE720A863F69}
  9
$EXTNAMES
290
1
  9
$PSVPSCALE
 40
0.0
  9
$OLESTARTUP
290
0
  9
$SORTENTS
280
127
  9
$INDEXCTL
280
0
  9
$HIDETEXT
280
1
  9
$XCLIPFRAME
280
1
  9
$HALOGAP
280
0
  9
$OBSCOLOR
 70
257
  9
$OBSLTYPE
280
0
  9
$INTERSECTIONDISPLAY
280
0
  9
$INTERSECTIONCOLOR
 70
257
  9
$DIMASSOC
280
2
  9
$PROJECTNAME
  1

  9
$CAMERADISPLAY
290
0
  9
$LENSLENGTH
 40
50.0
  9
$CAMERAHEIGHT
 40
0.0
  9
$STEPSPERSEC
 40
24.0
  9
$STEPSIZE
 40
100.0
  9
$3DDWFPREC
 40
2.0
  9
$PSOLWIDTH
 40
0.005
  9
$PSOLHEIGHT
 40
0.08
  9
$LOFTANG1
 40
1.570796326795
  9
$LOFTANG2
 40
1.570796326795
  9
$LOFTMAG1
 40
0.0
  9
$LOFTMAG2
 40
0.0
  9
$LOFTPARAM
 70
7
  9
$LOFTNORMALS
280
1
  9
$LATITUDE
 40
37.795
  9
$LONGITUDE
 40
-122.394
  9
$NORTHDIRECTION
 40
0.0
  9
$TIMEZONE
 70
-8000
  9
$LIGHTGLYPHDISPLAY
280
1
  9
$TILEMODELIGHTSYNCH
280
1
  9
$CMATERIAL
347
20
  9
$SOLIDHIST
280
0
  9
$SHOWHIST
280
1
  9
$DWFFRAME
280
2
  9
$DGNFRAME
280
2
  9
$REALWORLDSCALE
290
1
  9
$INTERFERECOLOR
 62
256
  9
$CSHADOW
280
0
  9
$SHADOWPLANELOCATION
 40
0.0
  0
ENDSEC
  0
SECTION
  2
CLASSES
  0
CLASS
  1
ACDBDICTIONARYWDFLT
  2
AcDbDictionaryWithDefault
  3
ObjectDBX Classes
 90
0
 91
0
280
0
281
0
  0
CLASS
  1
SUN
  2
AcDbSun
  3
SCENEOE
 90
1153
 91
0
280
0
281
0
  0
CLASS
  1
VISUALSTYLE
  2
AcDbVisualStyle
  3
ObjectDBX Classes
 90
4095
 91
0
280
0
281
0
  0
CLASS
  1
MATERIAL
  2
AcDbMaterial
  3
ObjectDBX Classes
 90
1153
 91
0
280
0
281
0
  0
CLASS
  1
SCALE
  2
AcDbScale
  3
ObjectDBX Classes
 90
1153
 91
0
280
0
281
0
  0
CLASS
  1
TABLESTYLE
  2
AcDbTableStyle
  3
ObjectDBX Classes
 90
4095
 91
0
280
0
281
0
  0
CLASS
  1
MLEADERSTYLE
  2
AcDbMLeaderStyle
  3
ACDB_MLEADERSTYLE_CLASS
 90
4095
 91
0
280
0
281
0
  0
CLASS
  1
DICTIONARYVAR
  2
AcDbDictionaryVar
  3
ObjectDBX Classes
 90
0
 91
0
280
0
281
0
  0
CLASS
  1
CELLSTYLEMAP
  2
AcDbCellStyleMap
  3
ObjectDBX Classes
 90
1152
 91
0
280
0
281
0
  0
CLASS
  1
MENTALRAYRENDERSETTINGS
  2
AcDbMentalRayRenderSettings
  3
SCENEOE
 90
1024
 91
0
280
0
281
0
  0
CLASS
  1
ACDBDETAILVIEWSTYLE
  2
AcDbDetailViewStyle
  3
ObjectDBX Classes
 90
1025
 91
0
280
0
281
0
  0
CLASS
  1
ACDBSECTIONVIEWSTYLE
  2
AcDbSectionViewStyle
  3
ObjectDBX Classes
 90
1025
 91
0
280
0
281
0
  0
CLASS
  1
RASTERVARIABLES
  2
AcDbRasterVariables
  3
ISM
 90
0
 91
0
280
0
281
0
  0
CLASS
  1
LAYOUT
  2
AcDbLayout
  3
ObjectDBX Classes
 90
0
 91
0
280
0
281
0
  0
CLASS
  1
ACDBPLACEHOLDER
  2
AcDbPlaceHolder
  3
ObjectDBX Classes
 90
0
 91
0
280
0
281
0
  0
ENDSEC
  0
SECTION
  2
TABLES
  0
TABLE
  2
VPORT
  5
8
330
0
100
AcDbSymbolTable
 70
1
  0
VPORT
  5
23
330
8
100
AcDbSymbolTableRecord
100
AcDbViewportTableRecord
  2
*Active
 70
0
 10
0.0
 20
0.0
 11
1.0
 21
1.0
 12
0.0
 22
0.0
 13
0.0
 23
0.0
 14
0.5
 24
0.5
 15
0.5
 25
0.5
 16
0.0
 26
0.0
 36
1.0
 17
0.0
 27
0.0
 37
0.0
 40
1000.0
 41
1.34
 42
50.0
 43
0.0
 44
0.0
 50
0.0
 51
0.0
 71
0
 72
1000
 73
1
 74
3
 75
0
 76
0
 77
0
 78
0
281
0
 65
0
146
0.0
  0
ENDTAB
  0
TABLE
  2
LTYPE
  5
2
330
0
100
AcDbSymbolTable
 70
3
  0
LTYPE
  5
24
330
2
100
AcDbSymbolTableRecord
100
AcDbLinetypeTableRecord
  2
ByBlock
 70
0
  3

 72
65
 73
0
 40
0.0
  0
LTYPE
  5
25
330
2
100
AcDbSymbolTableRecord
100
AcDbLinetypeTableRecord
  2
ByLayer
 70
0
  3

 72
65
 73
0
 40
0.0
  0
LTYPE
  5
26
330
2
100
AcDbSymbolTableRecord
100
AcDbLinetypeTableRecord
  2
Continuous
 70
0
  3

 72
65
 73
0
 40
0.0
  0
ENDTAB
  0
TABLE
  2
LAYER
  5
1
330
0
100
AcDbSymbolTable
 70
2
  0
LAYER
  5
27
330
1
100
AcDbSymbolTableRecord
100
AcDbLayerTableRecord
  2
0
 70
0
 62
7
  6
Continuous
370
-3
390
13
347
21
  0
LAYER
  5
28
330
1
100
AcDbSymbolTableRecord
100
AcDbLayerTableRecord
  2
Defpoints
 70
0
 62
7
  6
Continuous
290
0
370
-3
390
13
347
21
  0
ENDTAB
  0
TABLE
  2
STYLE
  5
5
330
0
100
AcDbSymbolTable
 70
1
  0
STYLE
  5
29
330
5
100
AcDbSymbolTableRecord
100
AcDbTextStyleTableRecord
  2
Standard
 70
0
 40
0.0
 41
1.0
 50
0.0
 71
0
 42
2.5
  3
txt
  4

  0
ENDTAB
  0
TABLE
  2
VIEW
  5
7
330
0
100
AcDbSymbolTable
 70
0
  0
ENDTAB
  0
TABLE
  2
UCS
  5
6
330
0
100
AcDbSymbolTable
 70
0
  0
ENDTAB
  0
TABLE
  2
APPID
  5
3
330
0
100
AcDbSymbolTable
 70
3
  0
APPID
  5
2A
330
3
100
AcDbSymbolTableRecord
100
AcDbRegAppTableRecord
  2
ACAD
 70
0
  0
APPID
  5
30
330
3
100
AcDbSymbolTableRecord
100
AcDbRegAppTableRecord
  2
HATCHBACKGROUNDCOLOR
 70
0
  0
APPID
  5
31
330
3
100
AcDbSymbolTableRecord
100
AcDbRegAppTableRecord
  2
EZDXF
 70
0
  0
ENDTAB
  0
TABLE
  2
DIMSTYLE
  5
4
330
0
100
AcDbSymbolTable
 70
1
100
AcDbDimStyleTable
  0
DIMSTYLE
105
2B
330
4
100
AcDbSymbolTableRecord
100
AcDbDimStyleTableRecord
  2
Standard
 70
0
 40
1.0
 41
2.5
 42
0.625
 43
3.75
 44
1.25
 45
0.0
 46
0.0
 47
0.0
 48
0.0
 49
2.5
140
2.5
141
2.5
142
0.0
143
0.03937007874
144
1.0
145
0.0
146
1.0
147
0.625
148
0.0
 69
0
 70
0
 71
0
 72
0
 73
0
 74
0
 75
0
 76
0
 77
1
 78
8
 79
3
170
0
171
3
172
1
173
0
174
0
175
0
176
0
177
0
178
0
179
2
271
2
272
2
273
2
274
3
275
0
276
0
277
2
278
44
279
0
280
0
281
0
282
0
283
0
284
8
285
0
286
0
288
0
289
3
290
0
371
-2
372
-2
  0
ENDTAB
  0
TABLE
  2
BLOCK_RECORD
  5
9
330
0
100
AcDbSymbolTable
 70
2
  0
BLOCK_RECORD
  5
17
330
9
100
AcDbSymbolTableRecord
100
AcDbBlockTableRecord
  2
*Model_Space
340
1A
 70
0
280
1
281
0
  0
BLOCK_RECORD
  5
1B
330
9
100
AcDbSymbolTableRecord
100
AcDbBlockTableRecord
  2
*Paper_Space
340
1E
 70
0
280
1
281
0
  0
ENDTAB
  0
ENDSEC
  0
SECTION
  2
BLOCKS
  0
BLOCK
  5
18
330
17
100
AcDbEntity
  8
0
100
AcDbBlockBegin
  2
*Model_Space
 70
0
 10
0.0
 20
0.0
 30
0.0
  3
*Model_Space
  1

  0
ENDBLK
  5
19
330
17
100
AcDbEntity
  8
0
100
AcDbBlockEnd
  0
BLOCK
  5
1C
330
1B
100
AcDbEntity
  8
0
100
AcDbBlockBegin
  2
*Paper_Space
 70
0
 10
0.0
 20
0.0
 30
0.0
  3
*Paper_Space
  1

  0
ENDBLK
  5
1D
330
1B
100
AcDbEntity
  8
0
100
AcDbBlockEnd
  0
ENDSEC
  0
SECTION
  2
ENTITIES
  0
LWPOLYLINE
  5
2F
330
17
100
AcDbEntity
  8
0
100
AcDbPolyline
 90
1000
 70
1
 10
64.01353741868452
 20
0.0
 10
64.2719436491629
 20
0.40424209905112624
 10
64.5273416878266
 20
0.8117289903220052
 10
64.77968899900532
 20
1.2224357339500218
 10
65.02894334076696
 20
1.6363368349006135
 10
65.27506277262552
 20
2.053406247322709
 10
65.51800566317031
 20
2.473617379015798
 10
65.75773069761485
 20
2.896943096007121
 10
65.99419688526365
 20
3.3233557272374346
 10
66.22736356689516
 20
3.7528270693537698
 10
66.45719042205901
 20
4.185328391607575
 10
66.68363747628615
 20
4.620830440856615
 10
66.90666510821006
 20
5.05930344666895
 10
67.12623405659738
 20
5.500717126527299
 10
67.34230542728663
 20
5.945040691132074
 10
67.5548407000332
 20
6.392242849801314
 10
67.76380173525925
 20
6.842291815965769
 10
67.96915078070715
 20
7.295155312757304
 10
68.1708504779949
 20
7.750800578688821
 10
68.36886386907194
 20
8.209194373423815
 10
68.56315440257461
 20
8.670302983633718
 10
68.75368594007915
 20
9.134092228941137
 10
68.94042276225173
 20
9.600527467947018
 10
69.12332957489363
 20
10.069573604339853
 10
69.30237151488076
 20
10.541195093084935
 10
69.47751415599629
 20
11.015355946691702
 10
69.64872351465509
 20
11.492019741557135
 10
69.81596605551916
 20
11.971149624383234
 10
69.9792086970029
 20
12.452708318666527
 10
70.13841881666707
 20
12.936658131257557
 10
70.29356425650077
 20
13.422960958988265
 10
70.44461332809027
 20
13.911578295365219
 10
70.591534817674
 20
14.402471237326603
 10
70.73429799108278
 20
14.895600492060831
 10
70.87287259856444
 20
15.390926383884677
 10
71.0072288794923
 20
15.888408861178823
 10
71.13733756695649
 20
16.388007503378645
 10
71.26316989223778
 20
16.889681528018148
 10
71.38469758916311
 20
17.39338979782484
 10
71.50189289834213
 20
17.899090827863393
 10
71.61472857128464
 20
18.40674279272598
 10
71.72317787439793
 20
18.916303533767078
 10
71.82721459286392
 20
19.427730566380504
 10
71.92681303439568
 20
19.940981087316647
 10
72.02194803287264
 20
20.456011982037552
 10
72.11259495185475
 20
20.972779832107793
 10
72.19872968797465
 20
21.49124092261892
 10
72.28032867420828
 20
22.01135124964525
 10
72.3573688830232
 20
22.533066527728884
 10
72.42982782940477
 20
23.056342197391725
 10
72.49768357376011
 20
23.581133432672345
 10
72.5609147246996
 20
24.10739514868556
 10
72.61950044169596
 20
24.635082009202385
 10
72.67342043762123
 20
25.164148434248496
 10
72.72265498116116
 20
25.694548607718737
 10
72.76718489910766
 20
26.226236485005703
 10
72.80699157852918
 20
26.759165800640243
 10
72.84205696881928
 20
27.29329007594172
 10
72.87236358362355
 20
27.828562626675822
 10
72.89789450264549
 20
28.364936570718072
 10
72.91863337333103
 20
28.902364835720586
 10
72.9345644124329
 20
29.440800166780335
 10
72.94567240745435
 20
29.98019513410657
 10
72.95194271797341
 20
30.520502140685515
 10
72.95336127684767
 20
31.061673429940246
 10
72.94991459130044
 20
31.60366109338365
 10
72.94158974388861
 20
32.1464170782626
 10
72.92837439335285
 20
32.68989319519124
 10
72.91025677535092
 20
33.23404112577138
 10
72.88722570307456
 20
33.77881243019823
 10
72.85927056775081
 20
34.324158554849284
 10
72.82638133902856
 20
34.87003083985461
 10
72.78854856525074
 20
35.41638052664665
 10
72.7457633736135
 20
35.963158765487535
 10
72.69801747021282
 20
36.51031662297216
 10
72.64530313997956
 20
37.057805089505294
 10
72.58761324650386
 20
37.605575086750505
 10
72.52494123174995
 20
38.15357747504978
 10
72.4572811156621
 20
38.70176306081151
 10
72.38462749566297
 20
39.25008260386527
 10
72.30697554604517
 20
39.79848682478198
 10
72.22432101725734
 20
40.3469264121573
 10
72.1366602350858
 20
40.895352029856994
 10
72.0439900997325
 20
41.44371432422244
 10
71.94630808479118
 20
41.991963931234835
 10
71.84361223612221
 20
42.540051483636326
 10
71.73590117062777
 20
43.08792761800677
 10
71.62317407492834
 20
43.63554298179453
 10
71.50543070394204
 20
44.18284824029971
 10
71.38267137936774
 20
44.72979408360859
 10
71.25489698807354
 20
45.276331233477784
 10
71.12210898039208
 20
45.82241045016671
 10
70.9843093683234
 20
46.36798253921688
 10
70.84150072364753
 20
46.912998358177234
 10
70.69368617594768
 20
47.45740882327348
 10
70.54086941054557
 20
48.00116491602077
 10
70.38305466635046
 20
48.54421768977834
 10
70.22024673362318
 20
49.08651827624486
 10
70.05245095165682
 20
49.6280178918934
 10
69.87967320637517
 20
50.16866784434489
 10
69.70191992785108
 20
50.7084195386791
 10
69.51919808774558
 20
51.24722448368195
 10
69.33151519666976
 20
51.78503429802818
 10
69.13887930147077
 20
52.32180071639866
 10
68.94129898244339
 20
52.8574755955309
 10
68.73878335046909
 20
53.392010920202324
 10
68.53134204408393
 20
53.925358809145415
 10
68.31898522647673
 20
54.45747152089355
 10
68.10172358241957
 20
54.98830145955703
 10
67.87956831513173
 20
55.51780118052861
 10
67.65253114307919
 20
56.04592339611762
 10
67.42062429671084
 20
56.57262098111203
 10
67.18386051513349
 20
57.097846978267974
 10
66.94225304272672
 20
57.62155460372589
 10
66.69581562570008
 20
58.14369725235297
 10
66.44456250859338
 20
58.664228503011195
 10
66.18850843072235
 20
59.183102123750466
 10
65.927668622571
 20
59.70027207692654
 10
65.66205880213256
 20
60.21569252424312
 10
65.39169517120038
 20
60.729317831717886
 10
65.11659441161078
 20
61.24110257457211
 10
64.83677368143906
 20
61.751001542043255
 10
64.55225061115102
 20
62.258969742120854
 10
64.26304329971065
 20
62.76496240620484
 10
63.96917031064663
 20
63.268934993686294
 10
63.670650668078686
 20
63.77084319645078
 10
63.3675038527055
 20
64.27064294330359
 10
63.05974979775603
 20
64.76829040431727
 10
62.74740888490569
 20
65.26374199510089
 10
62.43050194015899
 20
65.75695438099146
 10
62.109050229700316
 20
66.24788448116733
 10
61.78307545571451
 20
66.7364894726834
 10
61.45259975217863
 20
67.22272679442864
 10
61.117645680626666
 20
67.70655415100555
 10
60.77823622588874
 20
68.18792951653194
 10
60.43439479180628
 20
68.66681113836529
 10
60.0861451969247
 20
69.14315754074971
 10
59.733511670165264
 20
69.61692752838569
 10
59.37651884647756
 20
70.08808018992299
 10
59.01519176247393
 20
70.55657490137712
 10
58.649555852047705
 20
71.02237132946931
 10
58.279636941976364
 20
71.48542943489078
 10
57.90546124751133
 20
71.94570947549143
 10
57.52705536795554
 20
72.4031720093932
 10
57.14444628223071
 20
72.85777789802906
 10
56.75766134443517
 20
73.30948830910756
 10
56.36672827939391
 20
73.7582647195037
 10
55.97167517820225
 20
74.20406891807647
 10
55.57253049376441
 20
74.64686300841403
 10
55.169323036328166
 20
75.08660941150632
 10
54.762081969017316
 20
75.52327086834657
 10
54.350836803362654
 20
75.9568104424616
 10
53.935617394833265
 20
76.38719152237219
 10
53.516453938369054
 20
76.81437782398343
 10
53.093376963915816
 20
77.23833339290668
 10
52.66641733196412
 20
77.65902260671287
 10
52.235606229093094
 20
78.07641017711872
 10
51.80097516352019
 20
78.49046115210601
 10
51.36255596065834
 20
78.90114091797504
 10
50.9203807586812
 20
79.30841520133312
 10
50.47448200409797
 20
79.71225007101825
 10
50.02489244733848
 20
80.11261193995998
 10
49.57164513834992
 20
80.50946756697708
 10
49.114773422205786
 20
80.90278405851389
 10
48.65431093472844
 20
81.29252887031548
 10
48.19029159812612
 20
81.67866980904292
 10
47.722749616645
 20
82.06117503382964
 10
47.25171947223757
 20
82.44001305777954
 10
46.77723592024828
 20
82.8151527494078
 10
46.29933398511666
 20
83.18656333402588
 10
45.81804895609959
 20
83.55421439507082
 10
45.33341638301277
 20
83.9180758753804
 10
44.84547207199262
 20
84.27811807841535
 10
44.354252081278986
 20
84.63431166942883
 10
43.8597927170198
 20
84.98662767658492
 10
43.36213052909774
 20
85.33503749202698
 10
42.86130230698017
 20
85.67951287289651
 10
42.35734507559265
 20
86.02002594230409
 10
41.85029609121643
 20
86.35654919025329
 10
41.34019283741095
 20
86.68905547451823
 10
40.82707302096149
 20
87.01751802147652
 10
40.31097456785253
 20
87.341910426898
 10
39.7919356192676
 20
87.66220665669074
 10
39.26999452761543
 20
87.97838104760535
 10
38.7451898525836
 20
88.29040830789849
 10
38.217560357219355
 20
88.59826351795667
 10
37.68714500403843
 20
88.90192213088183
 10
37.15398295116194
 20
89.20135997303916
 10
36.618113548481794
 20
89.4965532445686
 10
36.07957633385472
 20
89.78747851986132
 10
35.53841102932533
 20
90.07411274800158
 10
34.99465753737837
 20
90.35643325317585
 10
34.44835593722022
 20
90.63441773504958
 10
33.899546481089935
 20
90.90804426911323
 10
33.34826959060003
 20
91.1772913069982
 10
32.79456585310679
 20
91.44213767676412
 10
32.238476018110404
 20
91.70256258315821
 10
31.680040993685232
 20
91.95854560784801
 10
31.119301842939436
 20
92.21006670962838
 10
30.55629978050485
 20
92.45710622460396
 10
29.991076169056505
 20
92.6996448663479
 10
29.42367251586175
 20
92.93766372603828
 10
28.85413046935931
 20
93.17114427257269
 10
28.282491815767674
 20
93.40006835266244
 10
27.708798475722865
 20
93.62441819090735
 10
27.13309250094545
 20
93.84417638985168
 10
26.55541607093673
 20
94.05932593002281
 10
25.97581148970331
 20
94.26985016995323
 10
25.39432118251082
 20
94.47573284618669
 10
24.81098769266539
 20
94.6769580732701
 10
24.225853678323446
 20
94.87351034373116
 10
23.638961909329037
 20
95.06537452804339
 10
23.05035526407864
 20
95.25253587457934
 10
22.460076726412797
 20
95.43498000955249
 10
21.868169382534585
 20
95.61269293694899
 10
21.274676417954005
 20
95.78566103845026
 10
20.679641114458363
 20
95.95387107334685
 10
20.08310684710802
 20
96.11731017844475
 10
19.485117081256718
 20
96.27596586796494
 10
18.88571536959667
 20
96.42982603343658
 10
18.284945349227325
 20
96.57887894358511
 10
17.682850738747423
 20
96.72311324421572
 10
17.07947533537002
 20
96.86251795809304
 10
16.474863012059703
 20
96.99708248481765
 10
15.86905771469143
 20
97.1267966007002
 10
15.262103459230515
 20
97.25165045863379
 10
14.654044328933105
 20
97.3716345879652
 10
14.044924471566338
 20
97.48673989436585
 10
13.434788096647878
 20
97.59695765970264
 10
12.8236794727039
 20
97.70227954190972
 10
12.211642924544943
 20
97.80269757486145
 10
11.598722830558948
 20
97.89820416824743
 10
10.984963620020887
 20
97.98879210744963
 10
10.3704097704178
 20
98.07445455342247
 10
9.755105804789457
 20
98.15518504257648
 10
9.139096289082756
 20
98.23097748666545
 10
8.52242582952005
 20
98.30182617267808
 10
7.905139069980097
 20
98.36772576273407
 10
7.287280689391251
 20
98.42867129398533
 10
6.668895399135526
 20
98.48465817852272
 10
6.050027940463709
 20
98.5356822032883
 10
5.430723081919597
 20
98.58173952999361
 10
4.811025616773474
 20
98.62282669504451
 10
4.190980360463651
 20
98.6589406094723
 10
3.5706321480449796
 20
98.69007855887196
 10
2.950025831644237
 20
98.71623820334715
 10
2.3292062779209095
 20
98.73741757746248
 10
1.7082183655327128
 20
98.7536150902034
 10
1.0871069826052446
 20
98.76482952494317
 10
0.46591702420480646
 20
98.77106003941778
 10
-0.15530661018679717
 20
98.77230616570853
 10
-0.7765190191954475
 20
98.76856781023208
 10
-1.3976753020777943
 20
98.75984525373882
 10
-2.0187305612443307
 20
98.74613915131832
 10
-2.6396399047833174
 20
98.72745053241326
 10
-3.260358448987037
 20
98.70378080084073
 10
-3.8808413208803016
 20
98.67513173482114
 10
-4.501043660752989
 20
98.64150548701477
 10
-5.120920624696523
 20
98.60290458456592
 10
-5.74042738714579
 20
98.55933192915418
 10
-6.359519143427217
 20
98.51079079705278
 10
-6.978151112313368
 20
98.45728483919397
 10
-7.596278538585678
 20
98.39881808124117
 10
-8.213856695605207
 20
98.33539492366735
 10
-8.83084088789291
 20
98.26702014183978
 10
-9.447186453720196
 20
98.19369888611062
 10
-10.062848767709827
 20
98.11543668191304
 10
-10.677783243449008
 20
98.03223942986246
 10
-11.291945336114718
 20
97.94411340586294
 10
-11.905290545111862
 20
97.85106526121767
 10
-12.517774416726144
 20
97.7531020227436
 10
-13.129352546790766
 20
97.65023109288987
 10
-13.739980583369155
 20
97.54246024985895
 10
-14.349614229453582
 20
97.42979764773078
 10
-14.958209245680449
 20
97.3122518165889
 10
-15.5657214530635
 20
97.18983166264806
 10
-16.17210673574478
 20
97.06254646838302
 10
-16.777321043764967
 20
96.93040589265767
 10
-17.381320395852637
 20
96.79341997085412
 10
-17.98406088223423
 20
96.6515991150009
 10
-18.585498667464474
 20
96.50495411389983
 10
-19.185589993278153
 20
96.35349613325069
 10
-19.78429118146424
 20
96.19723671577337
 10
-20.381558636761927
 20
96.03618778132626
 10
-20.97734884978032
 20
95.87036162702063
 10
-21.571618399941546
 20
95.69977092733004
 10
-22.164323958447735
 20
95.524428734194
 10
-22.755422291273142
 20
95.34434847711532
 10
-23.344870262180873
 20
95.15954396324996
 10
-23.932624835765626
 20
94.97002937748897
 10
-24.518643080522022
 20
94.77581928253144
 10
-25.102882171939537
 20
94.57692861894776
 10
-25.685299395624376
 20
94.37337270523214
 10
-26.265852150448133
 20
94.16516723784373
 10
-26.844497951724478
 20
93.95232829123526
 10
-27.42119443441324
 20
93.73487231786842
 10
-27.995899356352783
 20
93.51281614821511
 10
-28.56857060152109
 20
93.28617699074317
 10
-29.139166183324978
 20
93.0549724318865
 10
-29.70764424791877
 20
92.81922043599772
 10
-30.27396307755184
 20
92.5789393452828
 10
-30.838081093945217
 20
92.33414787971708
 10
-31.399956861698314
 20
92.08486513694052
 10
-31.959549091724476
 20
91.83111059213266
 10
-32.51681664471679
 20
91.57290409786503
 10
-33.07171853464331
 20
91.31026588393081
 10
-33.624213932272454
 20
91.04321655715005
 10
-34.17426216872782
 20
90.77177710115002
 10
-34.72182273907315
 20
90.49596887611939
 10
-35.2668553059272
 20
90.21581361853487
 10
-35.80931970310785
 20
89.93133344085989
 10
-36.34917593930666
 20
89.64255083121363
 10
-36.88638420179231
 20
89.34948865300977
 10
-37.42090486014376
 20
89.05217014456385
 10
-37.95269847001282
 20
88.7506189186676
 10
-38.481725776915425
 20
88.4448589621302
 10
-39.007947720051995
 20
88.13491463528429
 10
-39.531325436156465
 20
87.82081067145646
 10
-40.051820263373216
 20
87.50257217640063
 10
-40.56939374516253
 20
87.18022462769366
 10
-41.08400763423314
 20
86.85379387409169
 10
-41.59562389650278
 20
86.5233061348463
 10
-42.10420471508488
 20
86.18878799897969
 10
-42.60971249430204
 20
85.8502664245174
 10
-43.1121098637259
 20
85.50776873767735
 10
-43.6113596822417
 20
85.16132263201513
 10
-44.10742504213867
 20
84.81095616752305
 10
-44.60026927322457
 20
84.45669776968299
 10
-45.08985594696376
 20
84.09857622847174
 10
-45.57614888063935
 20
83.73662069731729
 10
-46.05911214153738
 20
83.37086069200569
 10
-46.53871005115334
 20
83.00132608953709
 10
-47.014907189419866
 20
82.62804712693018
 10
-47.4876683989552
 20
82.25105439997346
 10
-47.95695878933149
 20
81.87037886192321
 10
-48.42274374136193
 20
81.48605182214656
 10
-48.88498891140686
 20
81.09810494470842
 10
-49.343660235696625
 20
80.70657024690243
 10
-49.79872393467137
 20
80.31148009772376
 10
-50.25014651733698
 20
79.91286721628329
 10
-50.697894785634965
 20
79.51076467016274
 10
-51.14193583882717
 20
79.10520587370874
 10
-51.582237077892934
 20
78.69622458626615
 10
-52.01876620993831
 20
78.28385491034888
 10
-52.451491252616215
 20
77.8681312897476
 10
-52.88038053855658
 20
77.44908850757383
 10
-53.30540271980531
 20
77.02676168423912
 10
-53.72652677227077
 20
76.60118627536878
 10
-54.143722000177554
 20
76.17239806964902
 10
-54.55695804052484
 20
75.74043318660758
 10
-54.966204867549784
 20
75.30532807432611
 10
-55.37143279719401
 20
74.86711950708383
 10
-55.77261249157149
 20
74.42584458293271
 10
-56.16971496343793
 20
73.98154072120188
 10
-56.562711580658984
 20
73.53424565993188
 10
-56.95157407067692
 20
73.08399745323777
 10
-57.33627452497418
 20
72.63083446860017
 10
-57.71678540353245
 20
72.17479538408408
 10
-58.093079539285924
 20
71.71591918548471
 10
-58.465130142567546
 20
71.25424516339979
 10
-58.832910805546625
 20
70.78981291022792
 10
-59.19639550665672
 20
70.32266231709241
 10
-59.555558615011876
 20
69.85283357069035
 10
-59.91037489481055
 20
69.38036715006616
 10
-60.260819509725124
 20
68.90530382330935
 10
-60.60686802727548
 20
68.42768464417672
 10
-60.94849642318606
 20
67.94755094863739
 10
-61.28568108572367
 20
67.46494435134159
 10
-61.61839882001551
 20
66.97990674201235
 10
-61.94662685234536
 20
66.49248028175988
 10
-62.27034283442667
 20
66.00270739931855
 10
-62.58952484765076
 20
65.51063078720622
 10
-62.90415140730867
 20
65.01629339780588
 10
-63.21420146678545
 20
64.51973843936902
 10
-63.519654421724425
 20
64.02100937194172
 10
-63.82049011416076
 20
63.52014990321197
 10
-64.11668883662239
 20
63.017203984279355
 10
-64.40823133619618
 20
62.51221580534681
 10
-64.69509881855888
 20
62.00522979133401
 10
-64.97727295196981
 20
61.49629059741318
 10
-65.25473587122501
 20
60.985443104467116
 10
-65.52747018157007
 20
60.472732414469405
 10
-65.79545896257085
 20
59.958203845787466
 10
-66.05868577193992
 20
59.441902928408204
 10
-66.31713464931727
 20
58.923875399086995
 10
-66.57079012000378
 20
58.40416719641953
 10
-66.81963719864538
 20
57.882824455838005
 10
-67.06366139286656
 20
57.35989350453103
 10
-67.30284870685185
 20
56.835420856287705
 10
-67.53718564487261
 20
56.30945320626748
 10
-67.76665921475889
 20
55.78203742569452
 10
-67.9912569313135
 20
55.25322055647824
 10
-68.21096681966709
 20
54.72304980576088
 10
-68.425777418573
 20
54.19157254039114
 10
-68.63567778363947
 20
53.65883628132621
 10
-68.84065749049815
 20
53.12488869796186
 10
-69.0407066379071
 20
52.58977760239158
 10
-69.23581585078672
 20
52.053550943595475
 10
-69.42597628318674
 20
51.516256801559706
 10
-69.611179621183
 20
50.977943381327336
 10
-69.79141808570252
 20
50.438659006980956
 10
-69.96668443527471
 20
49.898452115559
 10
-70.13697196870761
 20
49.35737125090566
 10
-70.30227452768773
 20
48.81546505745531
 10
-70.46258649930135
 20
48.27278227395389
 10
-70.61790281847648
 20
47.729371727116046
 10
-70.76821897034333
 20
47.18528232522101
 10
-70.91353099251215
 20
46.64056305164722
 10
-71.05383547726699
 20
46.0952629583472
 10
-71.18912957367361
 20
45.54943115926384
 10
-71.31941098960041
 20
45.00311682368904
 10
-71.44467799365076
 20
44.45636916956653
 10
-71.56492941700537
 20
43.90923745673894
 10
-71.68016465517348
 20
43.361770980142154
 10
-71.79038366965099
 20
42.81401906294672
 10
-71.89558698948503
 20
42.26603104964828
 10
-71.9957757127427
 20
41.71785629910863
 10
-72.09095150788345
 20
41.16954417754853
 10
-72.18111661503329
 20
40.62114405149371
 10
-72.26627384716002
 20
40.072705280675756
 10
-72.34642659114792
 20
39.52427721088923
 10
-72.42157880877069
 20
38.97590916680663
 10
-72.49173503756188
 20
38.42765044475278
 10
-72.55690039158121
 20
37.879550305440134
 10
-72.61708056207578
 20
37.331657966667045
 10
-72.6722818180354
 20
36.784022595979664
 10
-72.72251100664033
 20
36.23669330330081
 10
-72.7677755536013
 20
35.68971913352565
 10
-72.8080834633898
 20
35.14314905908716
 10
-72.84344331935861
 20
34.59703197249324
 10
-72.87386428375106
 20
34.05141667883602
 10
-72.89935609759814
 20
33.5063518882766
 10
-72.91992908050308
 20
32.9618862085062
 10
-72.9355941303119
 20
32.41806813718609
 10
-72.94636272266976
 20
31.874946054367353
 10
-72.95224691046185
 20
31.332568214893694
 10
-72.95325932313828
 20
30.790982740788113
 10
-72.94941316592264
 20
30.250237613625465
 10
-72.94072221890276
 20
29.710380666894004
 10
-72.92720083600406
 20
29.171459578346177
 10
-72.9088639438439
 20
28.63352186234196
 10
-72.88572704046732
 20
28.096614862186676
 10
-72.85780619396299
 20
27.560785742464265
 10
-72.82511804095921
 20
27.026081481369392
 10
-72.78767978499961
 20
26.492548863039644
 10
-72.74550919479789
 20
25.960234469890125
 10
-72.69862460237151
 20
25.42918467495255
 10
-72.64704490105397
 20
24.899445634220857
 10
-72.59078954338536
 20
24.371063279005817
 10
-72.52987853888096
 20
23.844083308299812
 10
-72.46433245167783
 20
23.318551181155335
 10
-72.39417239805923
 20
22.79451210907831
 10
-72.31942004385638
 20
22.272011048438145
 10
-72.24009760172844
 20
21.751092692898304
 10
-72.15622782831952
 20
21.231801465867346
 10
-72.06783402129382
 20
20.71418151297443
 10
-71.97494001624825
 20
20.19827669457048
 10
-71.87757018350293
 20
19.6841305782575
 10
-71.7757494247698
 20
19.17178643144818
 10
-71.66950316969947
 20
18.661287213957976
 10
-71.55885737230645
 20
18.15267557063187
 10
-71.44383850727321
 20
17.645993824007896
 10
-71.3244735661334
 20
17.141283967019742
 10
-71.20079005333449
 20
16.638587655740707
 10
-71.07281598218027
 20
16.137946202170518
 10
-70.94057987065396
 20
15.63940056706839
 10
-70.80411073712193
 20
15.142991352833421
 10
-70.66343809591905
 20
14.64875879643477
 10
-70.51859195281598
 20
14.156742762394149
 10
-70.36960280036925
 20
13.666982735822375
 10
-70.21650161315458
 20
13.179517815512245
 10
-70.05931984288429
 20
12.694386707089906
 10
-69.89808941340972
 20
12.211627716226788
 10
-69.73284271560914
 20
11.731278741914242
 10
-69.56361260216224
 20
11.253377269802927
 10
-69.39043238221207
 20
10.777960365609257
 10
-69.21333581591524
 20
10.305064668590468
 10
-69.03235710888146
 20
9.834726385090857
 10
-68.8475309065036
 20
9.366981282161376
 10
-68.65889228817878
 20
8.901864681253684
 10
-68.46647676142241
 20
8.439411451991765
 10
-68.2703202558755
 20
7.979656006022409
 10
-68.07045911720697
 20
7.5226322909467935
 10
-67.86693010091197
 20
7.068373784335033
 10
-67.65977036600749
 20
6.616913487825623
 10
-67.44901746862672
 20
6.1682839213119145
 10
-67.23470935551282
 20
5.722517117216814
 10
-67.01688435741482
 20
5.279644614858693
 10
-66.7955811823855
 20
4.839697454909396
 10
-66.57083890898375
 20
4.4027061739462106
 10
-66.34269697938267
 20
3.968700799100595
 10
-66.11119519238461
 20
3.537710842803948
 10
-65.87637369634493
 20
3.1097652976332255
 10
-65.6382729820064
 20
2.6848926312580725
 10
-65.3969338752451
 20
2.2631207814902847
 10
-65.15239752973011
 20
1.8444771514383078
 10
-64.90470541949857
 20
1.4289886047677183
 10
-64.65389933144752
 20
1.016681461069697
 10
-64.40002135774463
 20
0.6075814913384158
 10
-64.14311388815935
 20
0.20171391355985793
 10
-63.88321960231664
 20
-0.20089661158727568
 10
-63.62038146187453
 20
-0.6002259849169305
 10
-63.354642702628105
 20
-0.9962506728055293
 10
-63.08604682654117
 20
-1.3889477111452464
 10
-62.814637593707836
 20
-1.7782947091793535
 10
-62.54045901424619
 20
-2.1642698532179816
 10
-62.26355534012563
 20
-2.5468519102332037
 10
-61.98397105692975
 20
-2.9260202313327426
 10
-61.70175087555758
 20
-3.3017547551097577
 10
-61.41693972386445
 20
-3.6740360108688637
 10
-61.12958273824482
 20
-4.04284512172652
 10
-60.839725255159344
 20
-4.408163807584747
 10
-60.54741280260795
 20
-4.7699743879774354
 10
-60.25269109155143
 20
-5.128259784787873
 10
-59.955606007283514
 20
-5.483003524836458
 10
-59.656203600755376
 20
-5.834189742338074
 10
-59.354530079855536
 20
-6.181803181227693
 10
-59.05063180064624
 20
-6.525829197353839
 10
-58.74455525855959
 20
-6.866253760538595
 10
-58.43634707955512
 20
-7.20306345650368
 10
-58.12605401124104
 20
-7.536245488661913
 10
-57.81372291396202
 20
-7.865787679772691
 10
-57.49940075185466
 20
-8.191678473462163
 10
-57.18313458387436
 20
-8.513906935605807
 10
-56.864971554794764
 20
-8.832462755574152
 10
-56.5449588861826
 20
-9.147336247340473
 10
-56.22314386735025
 20
-9.458518350449978
 10
-55.8995738462882
 20
-9.766000630850415
 10
-55.574296220579875
 20
-10.069775281583139
 10
-55.247358428301084
 20
-10.369835123334758
 10
-54.91880793890673
 20
-10.666173604848646
 10
-54.58869224410666
 20
-10.958784803196256
 10
-54.257058848733344
 20
-11.247663423908067
 10
-53.92395526160383
 20
-11.532804800963657
 10
-53.58942898637813
 20
-11.814204896640982
 10
-53.253527512416426
 20
-12.091860301224823
 10
-52.91629830563784
 20
-12.365768232573764
 10
-52.57778879938243
 20
-12.635926535546687
 10
-52.23804638527954
 20
-12.902333681287807
 10
-51.89711840412443
 20
-13.164988766370683
 10
-51.55505213676577
 20
-13.423891511801548
 10
-51.211894795006096
 20
-13.679042261881577
 10
-50.86769351251802
 20
-13.93044198292887
 10
-50.522495335778075
 20
-14.178092261859753
 10
-50.17634721502087
 20
-14.421995304630206
 10
-49.82929599521598
 20
-14.662153934537283
 10
-49.481388407069566
 20
-14.898571590381154
 10
-49.13267105805321
 20
-15.131252324488159
 10
-48.78319042346242
 20
-15.360200800595036
 10
-48.43299283750702
 20
-15.585422291595103
 10
-48.082124484435845
 20
-15.806922677146648
 10
-47.73063138969751
 20
-16.024708441144323
 10
-47.378559411140465
 20
-16.238786669053884
 10
-47.02595423025365
 20
-16.4491650451111
 10
-46.67286134345078
 20
-16.655851849385336
 10
-46.31932605340003
 20
-16.858855954708616
 10
-45.96539346040131
 20
-17.058186823470976
 10
-45.61110845381377
 20
-17.253854504282657
 10
-45.25651570353541
 20
-17.445869628504212
 10
-44.9016596515369
 20
-17.634243406645194
 10
-44.54658450345221
 20
-17.818987624632395
 10
-44.19133422022749
 20
-18.000114639948624
 10
-43.83595250983109
 20
-18.177637377642913
 10
-43.480482819026335
 20
-18.35156932621306
 10
-43.12496832520932
 20
-18.521924533361812
 10
-42.76945192831375
 20
-18.68871760162743
 10
-42.413976242784756
 20
-18.851963683890094
 10
-42.058583589624156
 20
-19.01167847875494
 10
-41.7033159885085
 20
-19.167878225813208
 10
-41.34821514998244
 20
-19.320579700782407
 10
-40.99332246772934
 20
-19.469800210526955
 10
-40.63867901092037
 20
-19.61555758796068
 10
-40.2843255166451
 20
-19.757870186832
 10
-39.93030238242472
 20
-19.896756876393667
 10
-39.57664965880983
 20
-20.03223703595809
 10
-39.223407042065006
 20
-20.164330549339734
 10
-38.87061386694148
 20
-20.293057799186126
 10
-38.5183090995401
 20
-20.418439661198747
 10
-38.16653133026623
 20
-20.54049749824536
 10
-37.815318766878256
 20
-20.6592531543654
 10
-37.46470922763145
 20
-20.7747289486697
 10
-37.11474013451881
 20
-20.886947669136546
 10
-36.765448506610745
 20
-20.99593256630516
 10
-36.41687095349508
 20
-21.101707346868622
 10
-36.06904366881875
 20
-21.204296167167755
 10
-35.72200242393361
 20
-21.30372362658745
 10
-35.37578256164641
 20
-21.400014760857623
 10
-35.03041899007625
 20
-21.49319503526
 10
-34.68594617661941
 20
-21.583290337742753
 10
-34.34239814202419
 20
-21.670326971944835
 10
-33.99980845457641
 20
-21.754331650131554
 10
-33.6582102243973
 20
-21.835331486043504
 10
-33.317636097855235
 20
-21.913353987660493
 10
-32.978118252092315
 20
-21.9884270498824
 10
-32.63968838966765
 20
-22.06057894712895
 10
-32.30237773331794
 20
-22.129838325860113
 10
-31.9662170208371
 20
-22.196234197019365
 10
-31.631236500075975
 20
-22.259795928401463
 10
-31.29746592406341
 20
-22.32055323694693
 10
-30.964934546249555
 20
-22.378536180965227
 10
-30.633671115873103
 20
-22.433775152288412
 10
-30.303703873452747
 20
-22.486300868357805
 10
-29.975060546404546
 20
-22.5361443642452
 10
-29.647768344786176
 20
-22.583336984611027
 10
-29.32185395716862
 20
-22.627910375601537
 10
-28.997343546636788
 20
-22.66989647668702
 10
-28.674262746919418
 20
-22.709327512443252
 10
-28.35263665864995
 20
-22.746235984278538
 10
-28.032489845758175
 20
-22.780654662108056
 10
-27.71384633199474
 20
-22.81261657597823
 10
-27.396729597588017
 20
-22.842155007643047
 10
-27.081162576034917
 20
-22.869303482094587
 10
-26.767167651026394
 20
-22.89409575905012
 10
-26.454766653507754
 20
-22.916565824397956
 10
-26.143980858874958
 20
-22.936747881604347
 10
-25.834830984307185
 20
-22.954676343083825
 10
-25.527337186236558
 20
-22.9703858215352
 10
-25.22151905795521
 20
-22.983911121245587
 10
-24.91739562736061
 20
-22.99528722936492
 10
-24.614985354839387
 20
-23.004549307153102
 10
-24.314306131289726
 20
-23.011732681202474
 10
-24.01537527628372
 20
-23.016872834637756
 10
-23.718209536369045
 20
-23.02000539829603
 10
-23.422825083510673
 20
-23.021166141889065
 10
-23.129237513673193
 20
-23.02039096515068
 10
-22.837461845543324
 20
-23.01771588897126
 10
-22.547512519393422
 20
-23.013177046522266
 10
-22.25940339608596
 20
-23.006810674372925
 10
-21.973147756218893
 20
-22.998653103601807
 10
-21.68875829941239
 20
-22.988740750905762
 10
-21.40624714373648
 20
-22.977110109708676
 10
-21.125625825280103
 20
-22.96379774127263
 10
-20.84690529786131
 20
-22.948840265814137
 10
-20.57009593287819
 20
-22.932274353627708
 10
-20.29520751930141
 20
-22.91413671621979
 10
-20.022249263806604
 20
-22.89446409745513
 10
-19.751229791048104
 20
-22.87329326471866
 10
-19.482157144072453
 20
-22.85066100009506
 10
-19.215038784871957
 20
-22.82660409156898
 10
-18.949881595078224
 20
-22.801159324248303
 10
-18.68669187679412
 20
-22.77436347161313
 10
-18.425475353565137
 20
-22.746253286793127
 10
-18.16623717148884
 20
-22.71686549387592
 10
-17.908981900461644
 20
-22.686236779248976
 10
-17.653713535563174
 20
-22.654403782977894
 10
-17.400435498576673
 20
-22.621403090223435
 10
-17.149150639645118
 20
-22.587271222700096
 10
-16.899861239062485
 20
-22.552044630178884
 10
-16.652569009199095
 20
-22.515759682036776
 10
-16.4072750965601
 20
-22.478452658855613
 10
-16.163980083976213
 20
-22.440159744072837
 10
-15.922683992926284
 20
-22.40091701568707
 10
-15.683386285989531
 20
-22.360760438020563
 10
-15.446085869427499
 20
-22.319725853541634
 10
-15.210781095894136
 20
-22.277848974749293
 10
-14.977469767272218
 20
-22.235165376122733
 10
-14.74614913763597
 20
-22.191710486138202
 10
-14.516815916337853
 20
-22.147519579355773
 10
-14.289466271218028
 20
-22.102627768578447
 10
-14.064095831935697
 20
-22.05706999708609
 10
-13.840699693420158
 20
-22.01088103094655
 10
-13.61927241944039
 20
-21.96409545140647
 10
-13.399808046291529
 20
-21.91674764736405
 10
-13.182300086596543
 20
-21.868871807926084
 10
-12.966741533221256
 20
-21.820501915051707
 10
-12.753124863300961
 20
-21.771671736284794
 10
-12.541442042377149
 20
-21.722414817577587
 10
-12.331684528641723
 20
-21.672764476207288
 10
-12.123843277287495
 20
-21.62275379378814
 10
-11.917908744962645
 20
-21.572415609380677
 10
-11.713870894326599
 20
-21.521782512700305
 10
-11.51171919870615
 20
-21.470886837427145
 10
-11.311442646848986
 20
-21.419760654618955
 10
-11.1130297477723
 20
-21.368435766228863
 10
-10.916468535704873
 20
-21.316943698729887
 10
-10.72174657511953
 20
-21.2653156968475
 10
-10.528850965854016
 20
-21.213582717402193
 10
-10.337768348317818
 20
-21.161775423263265
 10
-10.148484908782619
 20
-21.109924177415493
 10
-9.960986384753161
 20
-21.05805903713979
 10
-9.77525807041693
 20
-21.00620974830911
 10
-9.591284822169547
 20
-20.954405739800986
 10
-9.409051064213081
 20
-20.902676118027536
 10
-9.228540794225168
 20
-20.851049661583932
 10
-9.049737589095662
 20
-20.799554816016133
 10
-8.87262461072848
 20
-20.74821968870892
 10
-8.697184611905788
 20
-20.697072043894458
 10
-8.523399942211839
 20
-20.646139297782327
 10
-8.3512525540135
 20
-20.595448513811245
 10
-8.180724008494712
 20
-20.545026398022713
 10
-8.01179548174247
 20
-20.494899294557186
 10
-7.844447770880823
 20
-20.44509318127238
 10
-7.678661300250676
 20
-20.395633665484016
 10
-7.5144161276325105
 20
-20.34654597982896
 10
-7.351691950508595
 20
-20.297854978249994
 10
-7.190468112362838
 20
-20.24958513210246
 10
-7.030723609014927
 20
-20.201760526381978
 10
-6.8724370949858935
 20
-20.154404856072603
 10
-6.715586889892892
 20
-20.107541422614858
 10
-6.560150984869929
 20
-20.06119313049261
 10
-6.406107049012192
 20
-20.015382483938144
 10
-6.253432435841246
 20
-19.970131583753876
 10
-6.102104189788612
 20
-19.92546212425019
 10
-5.95209905269486
 20
-19.881395390297264
 10
-5.803393470322017
 20
-19.837952254490318
 10
-5.655963598876866
 20
-19.795153174426122
 10
-5.509785311542407
 20
-19.75301819008957
 10
-5.364834205015604
 20
-19.711566921348272
 10
-5.221085606048804
 20
-19.6708185655536
 10
-5.078514577992787
 20
-19.630791895246137
 10
-4.937095927339408
 20
-19.591505255963455
 10
-4.796804210261784
 20
-19.552976564148373
 10
-4.65761373914984
 20
-19.515223305155207
 10
-4.519498589139854
 20
-19.478262531352016
 10
-4.382432604635746
 20
-19.442110860316294
 10
-4.246389405820709
 20
-19.40678447312199
 10
-4.111342395157727
 20
-19.372299112715115
 10
-3.977264763877096
 20
-19.338670082375575
 10
-3.8441294984501795
 20
-19.305912244262714
 10
-3.7119093870475224
 20
-19.27404001804193
 10
-3.5805770259807836
 20
-19.243067379589636
 10
-3.45010482612686
 20
-19.21300785977403
 10
-3.3204650193338865
 20
-19.183874543309017
 10
-3.191629664807808
 20
-19.155680067678574
 10
-3.063570655478998
 20
-19.128436622128596
 10
-2.936259724348595
 20
-19.10215594672405
 10
-2.809668450813606
 20
-19.07684933146841
 10
-2.6837682669708394
 20
-19.052527615482536
 10
-2.5585304638993063
 20
-19.029201186240904
 10
-2.4339261979208575
 20
-19.006879978862166
 10
-2.3099264968391022
 20
-18.985573475451428
 10
-2.186502266156928
 20
-18.965290704492123
 10
-2.0636242952723682
 20
-18.946040240284564
 10
-1.9412632636536584
 20
-18.927830202429128
 10
-1.8193897469934805
 20
-18.910668255351624
 10
-1.6979742233430632
 20
-18.894561607868393
 10
-1.5769870792268545
 20
-18.879517012789442
 10
-1.4563986157383615
 20
-18.865540766557043
 10
-1.336179054617908
 20
-18.85263870891817
 10
-1.2162985443132364
 20
-18.840816222628725
 10
-1.0967271660241051
 20
-18.830078233187876
 10
-0.9774349397314859
 20
-18.820429208600782
 10
-0.858391830212996
 20
-18.811873159168407
 10
-0.7395677530452911
 20
-18.80441363730268
 10
-0.620932580594847
 20
-18.798053737365912
 10
-0.5024561479984793
 20
-18.792796095533497
 10
-0.38410825913484453
 20
-18.78864288967869
 10
-0.2658586925882398
 20
-18.78559583927856
 10
-0.14767720760616546
 20
-18.783656205340705
 10
-0.02953355005226107
 20
-18.782824790349714
 10
0.0886025416443152
 20
-18.78310193823366
 10
0.20676133054121634
 20
-18.784487534349452
 10
0.3249730752355207
 20
-18.78698100548772
 10
0.4432680239155522
 20
-18.790581319896962
 10
0.5616764084097883
 20
-18.79528698732692
 10
0.6802284382317927
 20
-18.801096059092004
 10
0.7989542946197867
 20
-18.808006128154815
 10
0.9178841245690558
 20
-18.81601432923074
 10
1.0370480348561935
 20
-18.82511733891407
 10
1.1564760860536454
 20
-18.83531137582678
 10
1.2761982865332093
 20
-18.846592200791207
 10
1.396244586457264
 20
-18.858955117027186
 10
1.5166448717566323
 20
-18.87239497037583
 10
1.6374289580938513
 20
-18.88690614955061
 10
1.7586265848106237
 20
-18.90248258641805
 10
1.8802674088588158
 20
-18.91911775630894
 10
2.0023809987137433
 20
-18.936804678362787
 10
2.124996828268914
 20
-18.955535915906562
 10
2.2481442707119337
 20
-18.97530357687039
 10
2.371852592380246
 20
-18.996099314242038
 10
2.4961509465965257
 20
-19.01791432656224
 10
2.621068367483393
 20
-19.040739358463718
 10
2.746633763756617
 20
-19.064564701255566
 10
2.872875912496985
 20
-19.08938019355578
 10
2.999823452900551
 20
-19.115175221974706
 10
3.127504880007051
 20
-19.141938721851176
 10
3.2559485384067295
 20
-19.16965917804468
 10
3.3851826159257836
 20
-19.198324625785858
 10
3.5152351372906505
 20
-19.227922651587924
 10
3.6461339577713754
 20
-19.258440394221793
 10
3.7779067568049944
 20
-19.28986454575759
 10
3.910581031599161
 20
-19.3221813526752
 10
4.044184090716868
 20
-19.355376617046712
 10
4.17874304764347
 20
-19.389435697793008
 10
4.314284814336422
 20
-19.424343512017767
 10
4.45083609475916
 20
-19.46008453642108
 10
4.588423378400418
 20
-19.496642808795343
 10
4.727072933779906
 20
-19.53400192960633
 10
4.866810801942122
 20
-19.572145063661473
 10
5.0076627899396895
 20
-19.611054941868264
 10
5.149654464307716
 20
-19.650713863084988
 10
5.292811144530988
 20
-19.691103696066136
 10
5.437157896505863
 20
-19.73220588150492
 10
5.58271952599873
 20
-19.774001434175034
 10
5.729520572102746
 20
-19.81647094517366
 10
5.877585300695446
 20
-19.85959458426806
 10
6.026937697898808
 20
-19.90335210234753
 10
6.17760146354438
 20
-19.947722833982546
 10
6.329600004645658
 20
-19.992685700093062
 10
6.482956428879926
 20
-20.03821921072741
 10
6.637693538082065
 20
-20.084301467953548
 10
6.793833821753091
 20
-20.13091016886417
 10
6.951399450585281
 20
-20.17802260869662
 10
7.110412270007186
 20
-20.22561568406946
 10
7.270893793750752
 20
-20.27366589633637
 10
7.4328651974432605
 20
-20.322149355058578
 10
7.596347312226624
 20
-20.371041781596553
 10
7.761360618407451
 20
-20.420318512822156
 10
7.927925239139602
 20
-20.469954504951293
 10
8.096060934142765
 20
-20.519924337498214
 10
8.265787093459654
 20
-20.570202217351365
 10
8.437122731254451
 20
-20.620761982971686
 10
8.610086479655463
 20
-20.671577108712803
 10
8.784696582644877
 20
-20.722620709263957
 10
8.960970889998217
 20
-20.773865544215145
 10
9.138926851276318
 20
-20.82528402274428
 10
9.318581509872896
 20
-20.876848208426544
 10
9.499951497120325
 20
-20.92852982416513
 10
9.68305302645604
 20
-20.980300257242888
 10
9.867901887653158
 20
-21.032130564494704
 10
10.054513441117098
 20
-21.083991477599408
 10
10.242902612251568
 20
-21.135853408490586
 10
10.433083885896442
 20
-21.187686454885572
 10
10.625071300839918
 20
-21.23946040593131
 10
10.818878444407774
 20
-21.291144747966154
 10
11.014518447132552
 20
-21.342708670396494
 10
11.212003977504455
 20
-21.394121071686538
 10
11.411347236807346
 20
-21.44535056546048
 10
11.612559954041718
 20
-21.496365486715014
 10
11.815653380937068
 20
-21.547133898141066
 10
12.020638287056403
 20
-21.5976235965528
 10
12.227524954994678
 20
-21.6478021194226
 10
12.43632317567396
 20
-21.69763675151984
 10
12.647042243736934
 20
-21.747094531651953
 10
12.859690953041612
 20
-21.796142259505775
 10
13.074277592258499
 20
-21.844746502587054
 10
13.290809940573014
 20
-21.89287360325643
 10
13.509295263494908
 20
-21.940489685859628
 10
13.729740308776151
 20
-21.987560663949633
 10
13.952151302440054
 20
-22.034052247598932
 10
14.176533944922603
 20
-22.079929950799425
 10
14.402893407328182
 20
-22.125159098947794
 10
14.631234327801362
 20
-22.169704836413974
 10
14.861560808016435
 20
-22.213532134190547
 10
15.093876409785887
 20
-22.2566057976205
 10
15.328184151789982
 20
-22.29889047420097
 10
15.564486506428251
 20
-22.34035066146064
 10
15.802785396794821
 20
-22.380950714908273
 10
16.043082193778694
 20
-22.42065485604976
 10
16.28537771329024
 20
-22.459427180471465
 10
16.529672213615093
 20
-22.497231665986945
 10
16.77596539289687
 20
-22.534032180844846
 10
17.02425638674978
 20
-22.56979249199522
 10
17.274543766001695
 20
-22.604476273411745
 10
17.526825534569475
 20
-22.6380471144671
 10
17.781099127467005
 20
-22.670468528359272
 10
18.037361408946495
 20
-22.701703960585615
 10
18.295608670775184
 20
-22.73171679746263
 10
18.555836630646628
 20
-22.760470374688445
 10
18.818040430728228
 20
-22.787927985945444
 10
19.082214636345828
 20
-22.81405289154057
 10
19.3483532348052
 20
-22.838808327080475
 10
19.61644963435186
 20
-22.862157512179028
 10
19.886496663269238
 20
-22.884063659194375
 10
20.158486569115915
 20
-22.904489981993294
 10
20.432411018101764
 20
-22.923399704739627
 10
20.708261094604808
 20
-22.940756070704833
 10
20.986027300827363
 20
-22.956522351097526
 10
21.26569955659279
 20
-22.970661853909668
 10
21.547267199283276
 20
-22.983137932776792
 10
21.830718983917883
 20
-22.993913995849507
 10
22.116043083372034
 20
-23.002953514674008
 10
22.403227088737964
 20
-23.0102200330786
 10
22.692258009826322
 20
-23.015677176064127
 10
22.983122275808853
 20
-23.019288658695405
 10
23.275805736002447
 20
-23.021018294991293
 10
23.570293660794363
 20
-23.020830006810883
 10
23.86657074270805
 20
-23.018687832733235
 10
24.164621097610283
 20
-23.01455593692808
 10
24.464428266058825
 20
-23.008398618015303
 10
24.765975214790092
 20
-23.00018031791034
 10
25.06924433834799
 20
-22.989865630653355
 10
25.374217460851696
 20
-22.97741931121956
 10
25.68087583790325
 20
-22.96280628430833
 10
25.98920015863471
 20
-22.945991653108685
 10
26.299170547893414
 20
-22.926940708038778
 10
26.61076656856596
 20
-22.90561893545689
 10
26.92396722403994
 20
-22.8819920263417
 10
27.238750960802847
 20
-22.856025884939466
 10
27.555095671177526
 20
-22.82768663737564
 10
27.872978696194075
 20
-22.796940640228797
 10
28.19237682859715
 20
-22.76375448906446
 10
28.51326631598768
 20
-22.72809502692654
 10
28.835622864099307
 20
-22.689929352784226
 10
29.15942164020771
 20
-22.64922482993189
 10
29.48463727667241
 20
-22.60594909434005
 10
29.81124387461104
 20
-22.56007006295488
 10
30.139215007703896
 20
-22.5115559419443
 10
30.468523726128527
 20
-22.46037523488838
 10
30.799142560624134
 20
-22.40649675091191
 10
31.131043526683314
 20
-22.349889612757003
 10
31.464198128871676
 20
-22.29052326479367
 10
31.798577365273477
 20
-22.228367480966096
 10
32.1341517320624
 20
-22.163392372672824
 10
32.47089122819627
 20
-22.095568396578493
 10
32.80876536023519
 20
-22.024866362355368
 10
33.14774314728138
 20
-21.95125744035233
 10
33.48779312603937
 20
-21.874713169189747
 10
33.828883355996325
 20
-21.79520546327775
 10
34.17098142472003
 20
-21.712706620256515
 10
34.51405445327426
 20
-21.627189328356106
 10
34.858069101749834
 20
-21.538626673674305
 10
35.20299157490998
 20
-21.44699214737047
 10
35.54878762794851
 20
-21.35225965277351
 10
35.8954225723603
 20
-21.254403512402096
 10
36.24286128192119
 20
-21.153398474895482
 10
36.59106819877731
 20
-21.04921972185296
 10
36.94000733964148
 20
-20.941842874580175
 10
37.28964230209555
 20
-20.83124400074079
 10
37.6399362709967
 20
-20.717399620911543
 10
37.99085202498684
 20
-20.60028671503908
 10
38.34235194310319
 20
-20.47988272879684
 10
38.694398011487834
 20
-20.356165579840674
 10
39.04695183019601
 20
-20.229113663960984
 10
39.39997462009968
 20
-20.098705861130494
 10
39.75342722988633
 20
-19.964921541445516
 10
40.107270143150295
 20
-19.82774057095948
 10
40.46146348557511
 20
-19.687143317407234
 10
40.815967032204874
 20
-19.543110655818577
 10
41.17074021480369
 20
-19.395623974019394
 10
41.525742129300056
 20
-19.24466517801951
 10
41.88093154331538
 20
-19.090216697285275
 10
42.23626690377444
 20
-18.9322614898958
 10
42.591706344595515
 20
-18.770783047581787
 10
42.94720769445881
 20
-18.605765400645137
 10
43.30272848465104
 20
-18.437193122758394
 10
43.65822595698398
 20
-18.265051335642877
 10
44.013657071785026
 20
-18.089325713624145
 10
44.36897851595842
 20
-17.910002488063526
 10
44.724146711113896
 20
-17.727068451665044
 10
45.07911782176174
 20
-17.54051096265609
 10
45.43384776357189
 20
-17.350317948841067
 10
45.788292211694376
 20
-17.15647791152728
 10
46.142406609140174
 20
-16.958979929321288
 10
46.496146175218904
 20
-16.757813661795787
 10
46.84946591403274
 20
-16.552969353025073
 10
47.20232062302283
 20
-16.344437834989254
 10
47.55466490156747
 20
-16.132210530845313
 10
47.90645315962858
 20
-15.916279458065258
 10
48.25763962644517
 20
-15.696637231439752
 10
48.60817835927128
 20
-15.473277065946865
 10
48.958023252155584
 20
-15.24619277948555
 10
49.30712804476166
 20
-15.015378795472449
 10
49.65544633122522
 20
-14.780830145302147
 10
50.002931569046915
 20
-14.542542470670035
 10
50.34953708801823
 20
-14.30051202575708
 10
50.69521609917832
 20
-14.054735679276146
 10
51.039921703798534
 20
-13.80521091637976
 10
51.383606902394
 20
-13.55193584042812
 10
51.7262246037581
 20
-13.294909174617977
 10
52.06772763401873
 20
-13.034130263471155
 10
52.40806874571388
 20
-12.769599074182926
 10
52.74720062688332
 20
-12.501316197829949
 10
53.085075910174886
 20
-12.229282850437588
 10
53.4216471819628
 20
-11.953500873906185
 10
53.75686699147569
 20
-11.67397273679635
 10
54.09068785993132
 20
-11.390701534973557
 10
54.423062289676814
 20
-11.10369099211116
 10
54.7539427733309
 20
-10.812945460052646
 10
55.0832818029261
 20
-10.518469919033134
 10
55.41103187904937
 20
-10.220269977759123
 10
55.73714551997737
 20
-9.918351873348287
 10
56.06157527080471
 20
-9.612722471128428
 10
56.38427371256342
 20
-9.303389264295689
 10
56.70519347132986
 20
-8.990360373433242
 10
57.024287227317956
 20
-8.673644545889758
 10
57.34150772395595
 20
-8.353251155018429
 10
57.65680777694409
 20
-8.029190199277144
 10
57.97014028329123
 20
-7.7014723011900275
 10
58.28145823032781
 20
-7.370108706170639
 10
58.59071470469341
 20
-7.035111281207517
 10
58.89786290129545
 20
-6.696492513413113
 10
59.20285613223805
 20
-6.354265508435609
 10
59.5056478357179
 20
-6.00844398873535
 10
59.80619158488464
 20
-5.659042291726388
 10
60.10444109666501
 20
-5.306075367782731
 10
60.400350240546445
 20
-4.9495587781118475
 10
60.693873047319066
 20
-4.589508692495149
 10
60.98496371777422
 20
-4.225941886896046
 10
61.27357663135606
 20
-3.858875740937637
 10
61.55966635476506
 20
-3.4883282352497416
 10
61.843187650511254
 20
-3.114317948686836
 10
62.12409548541409
 20
-2.736864055417951
 10
62.40234503904769
 20
-2.355986321889816
 10
62.67789171212961
 20
-1.9717051036629516
 10
62.950691134849876
 20
-1.5840413421238886
 10
63.220699175139046
 20
-1.19301656107339
 10
63.48787194687359
 20
-0.7986528631916583
 10
63.75216581801538
 20
-0.4009729263830142
 10
64.0135374186845
 20
-1.567879474037826e-14
  0
ENDSEC
  0
SECTION
  2
OBJECTS
  0
DICTIONARY
  5
A
330
0
100
AcDbDictionary
281
1
  3
ACAD_COLOR
350
B
  3
ACAD_GROUP
350
C
  3
ACAD_LAYOUT
350
D
  3
ACAD_MATERIAL
350
E
  3
ACAD_MLEADERSTYLE
350
F
  3
ACAD_MLINESTYLE
350
10
  3
ACAD_PLOTSETTINGS
350
11
  3
ACAD_PLOTSTYLENAME
350
12
  3
ACAD_SCALELIST
350
14
  3
ACAD_TABLESTYLE
350
15
  3
ACAD_VISUALSTYLE
350
16
  3
EZDXF_META
350
2D
  0
DICTIONARY
  5
B
330
A
100
AcDbDictionary
281
1
  0
DICTIONARY
  5
C
330
A
100
AcDbDictionary
281
1
  0
DICTIONARY
  5
D
330
A
100
AcDbDictionary
281
1
  3
Model
350
1A
  3
Layout1
350
1E
  0
DICTIONARY
  5
E
330
A
100
AcDbDictionary
281
1
  3
ByBlock
350
1F
  3
ByLayer
350
20
  3
Global
350
21
  0
DICTIONARY
  5
F
330
A
100
AcDbDictionary
281
1
  3
Standard
350
2C
  0
DICTIONARY
  5
10
330
A
100
AcDbDictionary
281
1
  3
Standard
350
22
  0
DICTIONARY
  5
11
330
A
100
AcDbDictionary
281
1
  0
ACDBDICTIONARYWDFLT
  5
12
330
A
100
AcDbDictionary
281
1
  3
Normal
350
13
100
AcDbDictionaryWithDefault
340
13
  0
ACDBPLACEHOLDER
  5
13
330
12
  0
DICTIONARY
  5
14
330
A
100
AcDbDictionary
281
1
  0
DICTIONARY
  5
15
330
A
100
AcDbDictionary
281
1
  0
DICTIONARY
  5
16
330
A
100
AcDbDictionary
281
1
  0
LAYOUT
  5
1A
330
D
100
AcDbPlotSettings
  1

  4
A3
  6

 40
7.5
 41
20.0
 42
7.5
 43
20.0
 44
420.0
 45
297.0
 46
0.0
 47
0.0
 48
0.0
 49
0.0
140
0.0
141
0.0
142
1.0
143
1.0
 70
1024
 72
1
 73
0
 74
5
  7

 75
16
 76
0
 77
2
 78
300
147
1.0
148
0.0
149
0.0
100
AcDbLayout
  1
Model
 70
1
 71
0
 10
0.0
 20
0.0
 11
420.0
 21
297.0
 12
0.0
 22
0.0
 32
0.0
 14
1e+20
 24
1e+20
 34
1e+20
 15
-1e+20
 25
-1e+20
 35
-1e+20
146
0.0
 13
0.0
 23
0.0
 33
0.0
 16
1.0
 26
0.0
 36
0.0
 17
0.0
 27
1.0
 37
0.0
 76
1
330
17
  0
LAYOUT
  5
1E
330
D
100
AcDbPlotSettings
  1

  4
A3
  6

 40
7.5
 41
20.0
 42
7.5
 43
20.0
 44
420.0
 45
297.0
 46
0.0
 47
0.0
 48
0.0
 49
0.0
140
0.0
141
0.0
142
1.0
143
1.0
 70
0
 72
1
 73
0
 74
5
  7

 75
16
 76
0
 77
2
 78
300
147
1.0
148
0.0
149
0.0
100
AcDbLayout
  1
Layout1
 70
1
 71
1
 10
0.0
 20
0.0
 11
420.0
 21
297.0
 12
0.0
 22
0.0
 32
0.0
 14
1e+20
 24
1e+20
 34
1e+20
 15
-1e+20
 25
-1e+20
 35
-1e+20
146
0.0
 13
0.0
 23
0.0
 33
0.0
 16
1.0
 26
0.0
 36
0.0
 17
0.0
 27
1.0
 37
0.0
 76
1
330
1B
  0
MATERIAL
  5
1F
102
{ACAD_REACTORS
330
E
102
}
330
E
100
AcDbMaterial
  1
ByBlock
  2

 70
0
 40
1.0
 71
1
 41
1.0
 91
-1023410177
 42
1.0
 72
1
  3

 73
1
 74
1
 75
1
 44
0.5
 73
0
 45
1.0
 46
1.0
 77
1
  4

 78
1
 79
1
170
1
 48
1.0
171
1
  6

172
1
173
1
174
1
140
1.0
141
1.0
175
1
  7

176
1
177
1
178
1
143
1.0
179
1
  8

270
1
271
1
272
1
145
1.0
146
1.0
273
1
  9

274
1
275
1
276
1
 42
1.0
 72
1
  3

 73
1
 74
1
 75
1
 94
63
  0
MATERIAL
  5
20
102
{ACAD_REACTORS
330
E
102
}
330
E
100
AcDbMaterial
  1
ByLayer
  2

 70
0
 40
1.0
 71
1
 41
1.0
 91
-1023410177
 42
1.0
 72
1
  3

 73
1
 74
1
 75
1
 44
0.5
 73
0
 45
1.0
 46
1.0
 77
1
  4

 78
1
 79
1
170
1
 48
1.0
171
1
  6

172
1
173
1
174
1
140
1.0
141
1.0
175
1
  7

176
1
177
1
178
1
143
1.0
179
1
  8

270
1
271
1
272
1
145
1.0
146
1.0
273
1
  9

274
1
275
1
276
1
 42
1.0
 72
1
  3

 73
1
 74
1
 75
1
 94
63
  0
MATERIAL
  5
21
102
{ACAD_REACTORS
330
E
102
}
330
E
100
AcDbMaterial
  1
Global
  2

 70
0
 40
1.0
 71
1
 41
1.0
 91
-1023410177
 42
1.0
 72
1
  3

 73
1
 74
1
 75
1
 44
0.5
 73
0
 45
1.0
 46
1.0
 77
1
  4

 78
1
 79
1
170
1
 48
1.0
171
1
  6

172
1
173
1
174
1
140
1.0
141
1.0
175
1
  7

176
1
177
1
178
1
143
1.0
179
1
  8

270
1
271
1
272
1
145
1.0
146
1.0
273
1
  9

274
1
275
1
276
1
 42
1.0
 72
1
  3

 73
1
 74
1
 75
1
 94
63
  0
MLINESTYLE
  5
22
102
{ACAD_REACTORS
330
10
102
}
330
10
100
AcDbMlineStyle
  2
Standard
 70
0
  3

 62
256
 51
90.0
 52
90.0
 71
2
 49
0.5
 62
256
  6
BYLAYER
 49
-0.5
 62
256
  6
BYLAYER
  0
MLEADERSTYLE
  5
2C
102
{ACAD_REACTORS
330
F
102
}
330
F
100
AcDbMLeaderStyle
179
2
170
2
171
1
172
0
 90
2
 40
0.0
 41
0.0
173
1
 91
-1056964608
 92
-2
290
1
 42
2.0
291
1
 43
8.0
  3
Standard
 44
4.0
300

342
29
174
1
175
1
176
0
178
1
 93
-1056964608
 45
4.0
292
0
297
0
 46
4.0
 94
-1056964608
 47
1.0
 49
1.0
140
1.0
294
1
141
0.0
177
0
142
1.0
295
0
296
0
143
3.75
271
0
272
9
273
9
  0
DICTIONARY
  5
2D
330
A
100
AcDbDictionary
280
1
281
1
  3
CREATED_BY_EZDXF
350
2E
  3
WRITTEN_BY_EZDXF
350
32
  0
DICTIONARYVAR
  5
2E
330
2D
100
DictionaryVariables
280
0
  1
1.4.2 @ 2025-06-24T12:13:11.535833+00:00
  0
DICTIONARYVAR
  5
32
330
2D
100
DictionaryVariables
280
0
  1
1.4.2 @ 2025-06-24T12:13:11.539844+00:00
  0
ENDSEC
  0
EOF
